<mxfile host="65bd71144e">
    <diagram id="DMBnH9nMYS3C8z4wjmBy" name="Page-1">
        <mxGraphModel dx="757" dy="539" grid="1" gridSize="10" guides="1" tooltips="1" connect="1" arrows="1" fold="1" page="1" pageScale="1" pageWidth="827" pageHeight="1169" math="0" shadow="0">
            <root>
                <mxCell id="0"/>
                <mxCell id="1" parent="0"/>
                <mxCell id="4" value="" style="html=1;verticalLabelPosition=bottom;align=center;labelBackgroundColor=#ffffff;verticalAlign=top;strokeWidth=3;shadow=0;dashed=0;shape=mxgraph.ios7.icons.user;aspect=fixed;strokeColor=#009900;fillColor=none;" vertex="1" parent="1">
                    <mxGeometry x="60" y="280" width="70" height="70" as="geometry"/>
                </mxCell>
                <mxCell id="5" value="&lt;font style=&quot;font-size: 16px&quot; color=&quot;#000000&quot;&gt;&lt;b&gt;Mike&lt;/b&gt;&lt;/font&gt;" style="text;html=1;strokeColor=none;fillColor=none;align=center;verticalAlign=middle;whiteSpace=wrap;rounded=0;" vertex="1" parent="1">
                    <mxGeometry x="75" y="370" width="40" height="20" as="geometry"/>
                </mxCell>
                <mxCell id="6" value="" style="aspect=fixed;html=1;points=[];align=center;image;fontSize=12;image=img/lib/mscae/Resource_Explorer.svg;strokeColor=#000000;strokeWidth=3;" vertex="1" parent="1">
                    <mxGeometry x="280" y="280" width="76.09" height="70" as="geometry"/>
                </mxCell>
                <mxCell id="7" value="" style="endArrow=classic;html=1;entryX=-0.05;entryY=0.493;entryDx=0;entryDy=0;entryPerimeter=0;strokeWidth=2;strokeColor=#000000;" edge="1" parent="1" target="6">
                    <mxGeometry width="50" height="50" relative="1" as="geometry">
                        <mxPoint x="134" y="315" as="sourcePoint"/>
                        <mxPoint x="230" y="500" as="targetPoint"/>
                    </mxGeometry>
                </mxCell>
                <mxCell id="8" value="" style="verticalLabelPosition=bottom;html=1;verticalAlign=top;align=center;strokeColor=none;fillColor=#000000;shape=mxgraph.azure.script_file;pointerEvents=1;aspect=fixed;" vertex="1" parent="1">
                    <mxGeometry x="153.37" y="320" width="33.25" height="35" as="geometry"/>
                </mxCell>
                <mxCell id="9" value="&lt;font style=&quot;font-size: 9px;&quot; color=&quot;#000000&quot;&gt;&lt;b style=&quot;font-size: 9px;&quot;&gt;Nouveau fichier&lt;/b&gt;&lt;/font&gt;" style="text;html=1;strokeColor=none;fillColor=none;align=center;verticalAlign=middle;whiteSpace=wrap;rounded=0;fontSize=9;" vertex="1" parent="1">
                    <mxGeometry x="150" y="360" width="40" height="20" as="geometry"/>
                </mxCell>
                <mxCell id="12" value="" style="endArrow=classic;html=1;fontSize=9;strokeColor=#000000;strokeWidth=2;" edge="1" parent="1">
                    <mxGeometry width="50" height="50" relative="1" as="geometry">
                        <mxPoint x="359" y="315" as="sourcePoint"/>
                        <mxPoint x="451" y="315" as="targetPoint"/>
                    </mxGeometry>
                </mxCell>
                <mxCell id="14" value="" style="html=1;aspect=fixed;strokeColor=none;shadow=0;align=center;verticalAlign=top;shape=mxgraph.gcp2.gear;fontSize=9;fillColor=#000000;" vertex="1" parent="1">
                    <mxGeometry x="450" y="280" width="70" height="70" as="geometry"/>
                </mxCell>
                <mxCell id="15" value="&lt;font style=&quot;font-size: 16px&quot; color=&quot;#000000&quot;&gt;&lt;b&gt;Système de fichiers&lt;/b&gt;&lt;/font&gt;" style="text;html=1;strokeColor=none;fillColor=none;align=center;verticalAlign=middle;whiteSpace=wrap;rounded=0;" vertex="1" parent="1">
                    <mxGeometry x="267.06000000000006" y="380" width="101.96" height="20" as="geometry"/>
                </mxCell>
                <mxCell id="16" value="&lt;font style=&quot;font-size: 16px&quot; color=&quot;#000000&quot;&gt;&lt;b&gt;VCS&lt;/b&gt;&lt;/font&gt;" style="text;html=1;strokeColor=none;fillColor=none;align=center;verticalAlign=middle;whiteSpace=wrap;rounded=0;" vertex="1" parent="1">
                    <mxGeometry x="465" y="370" width="40" height="20" as="geometry"/>
                </mxCell>
                <mxCell id="31" value="" style="html=1;verticalLabelPosition=bottom;align=center;labelBackgroundColor=#ffffff;verticalAlign=top;strokeWidth=3;shadow=0;dashed=0;shape=mxgraph.ios7.icons.user;aspect=fixed;strokeColor=#003366;fillColor=none;" vertex="1" parent="1">
                    <mxGeometry x="60" y="430" width="70" height="70" as="geometry"/>
                </mxCell>
                <mxCell id="32" value="&lt;font style=&quot;font-size: 16px&quot; color=&quot;#000000&quot;&gt;&lt;b&gt;Dustin&lt;/b&gt;&lt;/font&gt;" style="text;html=1;strokeColor=none;fillColor=none;align=center;verticalAlign=middle;whiteSpace=wrap;rounded=0;" vertex="1" parent="1">
                    <mxGeometry x="75" y="520" width="40" height="20" as="geometry"/>
                </mxCell>
                <mxCell id="33" value="" style="endArrow=classic;html=1;fontSize=9;strokeColor=#000000;strokeWidth=2;edgeStyle=orthogonalEdgeStyle;" edge="1" parent="1">
                    <mxGeometry width="50" height="50" relative="1" as="geometry">
                        <mxPoint x="134" y="470" as="sourcePoint"/>
                        <mxPoint x="320" y="411" as="targetPoint"/>
                    </mxGeometry>
                </mxCell>
                <mxCell id="37" value="&lt;font style=&quot;font-size: 9px&quot; color=&quot;#000000&quot;&gt;&lt;b style=&quot;font-size: 9px&quot;&gt;Supprime fichier&lt;/b&gt;&lt;/font&gt;" style="text;html=1;strokeColor=none;fillColor=none;align=center;verticalAlign=middle;whiteSpace=wrap;rounded=0;fontSize=9;" vertex="1" parent="1">
                    <mxGeometry x="150" y="520" width="40" height="20" as="geometry"/>
                </mxCell>
                <mxCell id="39" value="" style="verticalLabelPosition=bottom;html=1;verticalAlign=top;align=center;strokeColor=none;fillColor=#000000;shape=mxgraph.azure.script_file;pointerEvents=1;aspect=fixed;" vertex="1" parent="1">
                    <mxGeometry x="153.37" y="480" width="33.25" height="35" as="geometry"/>
                </mxCell>
                <mxCell id="40" value="" style="shape=umlDestroy;whiteSpace=wrap;html=1;strokeWidth=3;fontSize=9;aspect=fixed;fillColor=#660000;strokeColor=#660000;" vertex="1" parent="1">
                    <mxGeometry x="152.5" y="480" width="35" height="35" as="geometry"/>
                </mxCell>
                <mxCell id="41" value="Base de données" style="swimlane;fontStyle=1;childLayout=stackLayout;horizontal=1;startSize=26;horizontalStack=0;resizeParent=1;resizeParentMax=0;resizeLast=0;collapsible=1;marginBottom=0;align=center;fontSize=16;strokeColor=#000000;strokeWidth=3;fillColor=none;fontColor=#000000;" vertex="1" parent="1">
                    <mxGeometry x="590" y="280" width="160" height="86" as="geometry"/>
                </mxCell>
                <mxCell id="42" value="1. mike ajoute un fichier" style="text;strokeColor=none;fillColor=none;spacingLeft=4;spacingRight=4;overflow=hidden;rotatable=0;points=[[0,0.5],[1,0.5]];portConstraint=eastwest;fontSize=12;fontColor=#000000;" vertex="1" parent="41">
                    <mxGeometry y="26" width="160" height="30" as="geometry"/>
                </mxCell>
                <mxCell id="43" value="2. dustin supprime un fichier" style="text;strokeColor=none;fillColor=none;spacingLeft=4;spacingRight=4;overflow=hidden;rotatable=0;points=[[0,0.5],[1,0.5]];portConstraint=eastwest;fontSize=12;fontColor=#000000;" vertex="1" parent="41">
                    <mxGeometry y="56" width="160" height="30" as="geometry"/>
                </mxCell>
                <mxCell id="45" value="" style="endArrow=classic;html=1;fontSize=16;fontColor=#000000;strokeColor=#000000;strokeWidth=2;" edge="1" parent="1">
                    <mxGeometry width="50" height="50" relative="1" as="geometry">
                        <mxPoint x="523" y="315" as="sourcePoint"/>
                        <mxPoint x="587" y="315" as="targetPoint"/>
                    </mxGeometry>
                </mxCell>
            </root>
        </mxGraphModel>
    </diagram>
</mxfile>